<svg xmlns="http://www.w3.org/2000/svg" xmlns:xlink="http://www.w3.org/1999/xlink" width="500" zoomAndPan="magnify" viewBox="0 0 375 374.999991" height="500" preserveAspectRatio="xMidYMid meet" version="1.0"><defs><g/><clipPath id="b590cf53dd"><path d="M 114.035156 85.070312 L 260.964844 85.070312 L 260.964844 232.003906 L 114.035156 232.003906 Z M 114.035156 85.070312 " clip-rule="nonzero"/></clipPath><clipPath id="3a20d96913"><path d="M 187.5 85.070312 L 260.964844 158.539062 L 187.5 232.003906 L 114.035156 158.539062 L 187.5 85.070312 " clip-rule="nonzero"/></clipPath></defs><g clip-path="url(#b590cf53dd)"><g clip-path="url(#3a20d96913)"><path fill="#ffffff" d="M 114.035156 85.070312 L 260.964844 85.070312 L 260.964844 232.003906 L 114.035156 232.003906 Z M 114.035156 85.070312 " fill-opacity="1" fill-rule="nonzero"/></g></g><path stroke-linecap="butt" transform="matrix(0.53321, -0.53321, 0.53033, 0.53033, 165.605883, 179.369506)" fill="none" stroke-linejoin="miter" d="M 0.00178527 0.999158 L 80.564837 0.999158 " stroke="#000000" stroke-width="2" stroke-opacity="1" stroke-miterlimit="4"/><g fill="#000000" fill-opacity="1"><g transform="translate(158.492132, 149.064667)"><g><path d="M 20.171875 -7.796875 C 20.171875 -6.078125 19.84375 -4.601562 19.1875 -3.375 C 18.539062 -2.144531 17.625 -1.207031 16.4375 -0.5625 C 15.25 0.0703125 13.875 0.390625 12.3125 0.390625 C 9.71875 0.390625 7.710938 -0.328125 6.296875 -1.765625 C 4.878906 -3.203125 4.171875 -5.191406 4.171875 -7.734375 L 4.171875 -19.421875 C 4.171875 -20.296875 4.066406 -20.953125 3.859375 -21.390625 C 3.660156 -21.835938 3.4375 -22.132812 3.1875 -22.28125 C 2.9375 -22.4375 2.8125 -22.492188 2.8125 -22.453125 L 7.90625 -22.453125 C 7.90625 -22.492188 7.773438 -22.4375 7.515625 -22.28125 C 7.265625 -22.132812 7.035156 -21.84375 6.828125 -21.40625 C 6.628906 -20.976562 6.53125 -20.347656 6.53125 -19.515625 L 6.53125 -7.734375 C 6.53125 -5.617188 7.035156 -3.984375 8.046875 -2.828125 C 9.054688 -1.679688 10.539062 -1.109375 12.5 -1.109375 C 14.300781 -1.109375 15.722656 -1.65625 16.765625 -2.75 C 17.816406 -3.851562 18.34375 -5.484375 18.34375 -7.640625 L 18.34375 -19.421875 C 18.34375 -20.296875 18.234375 -20.953125 18.015625 -21.390625 C 17.796875 -21.835938 17.554688 -22.132812 17.296875 -22.28125 C 17.035156 -22.4375 16.90625 -22.492188 16.90625 -22.453125 L 21.609375 -22.453125 C 21.609375 -22.492188 21.476562 -22.4375 21.21875 -22.28125 C 20.957031 -22.132812 20.71875 -21.835938 20.5 -21.390625 C 20.28125 -20.953125 20.171875 -20.296875 20.171875 -19.421875 Z M 20.171875 -7.796875 "/></g></g></g><g fill="#000000" fill-opacity="1"><g transform="translate(190.195963, 187.589813)"><g><path d="M 21.671875 0 C 21.929688 -0.0390625 22.210938 -0.273438 22.515625 -0.703125 C 22.828125 -1.128906 22.984375 -1.914062 22.984375 -3.0625 L 22.984375 -19.390625 L 14.421875 0.359375 L 5.75 -19.359375 L 5.75 -3.234375 C 5.75 -2.054688 5.9375 -1.234375 6.3125 -0.765625 C 6.695312 -0.296875 7.039062 -0.0390625 7.34375 0 L 2.515625 0 C 2.835938 -0.0390625 3.191406 -0.285156 3.578125 -0.734375 C 3.972656 -1.179688 4.171875 -2.015625 4.171875 -3.234375 L 4.171875 -19.578125 C 4.171875 -20.628906 3.984375 -21.347656 3.609375 -21.734375 C 3.242188 -22.128906 2.878906 -22.367188 2.515625 -22.453125 L 6.921875 -22.453125 L 14.921875 -4.203125 L 22.78125 -22.453125 L 26.734375 -22.453125 C 26.453125 -22.410156 26.144531 -22.179688 25.8125 -21.765625 C 25.488281 -21.359375 25.328125 -20.597656 25.328125 -19.484375 L 25.328125 -2.9375 C 25.328125 -1.851562 25.488281 -1.101562 25.8125 -0.6875 C 26.144531 -0.269531 26.453125 -0.0390625 26.734375 0 Z M 21.671875 0 "/></g></g></g><g fill="#ffffff" fill-opacity="1"><g transform="translate(102.116069, 259.323763)"><g><path d="M 11.125 -4.296875 C 11.125 -3.347656 10.941406 -2.535156 10.578125 -1.859375 C 10.222656 -1.179688 9.71875 -0.664062 9.0625 -0.3125 C 8.40625 0.0390625 7.644531 0.21875 6.78125 0.21875 C 5.351562 0.21875 4.25 -0.175781 3.46875 -0.96875 C 2.6875 -1.757812 2.296875 -2.859375 2.296875 -4.265625 L 2.296875 -10.703125 C 2.296875 -11.191406 2.238281 -11.554688 2.125 -11.796875 C 2.019531 -12.046875 1.894531 -12.210938 1.75 -12.296875 C 1.613281 -12.378906 1.546875 -12.410156 1.546875 -12.390625 L 4.359375 -12.390625 C 4.359375 -12.410156 4.285156 -12.378906 4.140625 -12.296875 C 4.003906 -12.210938 3.878906 -12.050781 3.765625 -11.8125 C 3.648438 -11.570312 3.59375 -11.222656 3.59375 -10.765625 L 3.59375 -4.265625 C 3.59375 -3.097656 3.875 -2.195312 4.4375 -1.5625 C 5 -0.925781 5.816406 -0.609375 6.890625 -0.609375 C 7.890625 -0.609375 8.675781 -0.910156 9.25 -1.515625 C 9.820312 -2.128906 10.109375 -3.03125 10.109375 -4.21875 L 10.109375 -10.703125 C 10.109375 -11.191406 10.046875 -11.554688 9.921875 -11.796875 C 9.804688 -12.046875 9.675781 -12.210938 9.53125 -12.296875 C 9.394531 -12.378906 9.328125 -12.410156 9.328125 -12.390625 L 11.921875 -12.390625 C 11.921875 -12.410156 11.847656 -12.378906 11.703125 -12.296875 C 11.554688 -12.210938 11.421875 -12.046875 11.296875 -11.796875 C 11.179688 -11.554688 11.125 -11.191406 11.125 -10.703125 Z M 11.125 -4.296875 "/></g></g></g><g fill="#ffffff" fill-opacity="1"><g transform="translate(119.054152, 259.323763)"><g><path d="M 15.078125 -10.578125 C 15.222656 -11.015625 15.296875 -11.351562 15.296875 -11.59375 C 15.296875 -12.082031 15.082031 -12.347656 14.65625 -12.390625 L 17.4375 -12.390625 C 17.257812 -12.347656 17.03125 -12.207031 16.75 -11.96875 C 16.46875 -11.726562 16.207031 -11.257812 15.96875 -10.5625 L 12.078125 0.4375 L 8.609375 -9.546875 L 5.015625 0.4375 L 1.46875 -10.625 C 1.164062 -11.625 0.710938 -12.210938 0.109375 -12.390625 L 3.09375 -12.390625 C 2.757812 -12.328125 2.59375 -12.128906 2.59375 -11.796875 C 2.59375 -11.617188 2.664062 -11.316406 2.8125 -10.890625 L 3 -10.265625 L 5.28125 -2.75 L 8.921875 -12.71875 L 12.40625 -2.828125 Z M 15.078125 -10.578125 "/></g></g></g><g fill="#ffffff" fill-opacity="1"><g transform="translate(140.456221, 259.323763)"><g><path d="M 3.796875 -4.8125 L 2.640625 -1.9375 C 2.460938 -1.5 2.375 -1.132812 2.375 -0.84375 C 2.375 -0.445312 2.554688 -0.164062 2.921875 0 L 0.34375 0 C 0.457031 0 0.628906 -0.117188 0.859375 -0.359375 C 1.085938 -0.597656 1.351562 -1.070312 1.65625 -1.78125 L 6.359375 -12.953125 L 11.015625 -1.734375 C 11.273438 -1.078125 11.53125 -0.628906 11.78125 -0.390625 C 12.03125 -0.148438 12.222656 -0.0195312 12.359375 0 L 9.375 0 C 9.675781 -0.144531 9.828125 -0.367188 9.828125 -0.671875 C 9.828125 -0.921875 9.734375 -1.28125 9.546875 -1.75 L 8.28125 -4.8125 Z M 7.984375 -5.546875 L 6.03125 -10.34375 L 4.109375 -5.546875 Z M 7.984375 -5.546875 "/></g></g></g><g fill="#ffffff" fill-opacity="1"><g transform="translate(156.962299, 259.323763)"><g><path d="M 1.515625 0 C 1.515625 0.03125 1.582031 0.00390625 1.71875 -0.078125 C 1.863281 -0.171875 1.992188 -0.335938 2.109375 -0.578125 C 2.234375 -0.828125 2.296875 -1.191406 2.296875 -1.671875 L 2.296875 -10.703125 C 2.296875 -11.191406 2.238281 -11.554688 2.125 -11.796875 C 2.019531 -12.046875 1.894531 -12.210938 1.75 -12.296875 C 1.601562 -12.378906 1.53125 -12.410156 1.53125 -12.390625 L 4.390625 -12.390625 C 4.390625 -12.410156 4.316406 -12.378906 4.171875 -12.296875 C 4.023438 -12.210938 3.890625 -12.046875 3.765625 -11.796875 C 3.648438 -11.554688 3.59375 -11.191406 3.59375 -10.703125 L 3.59375 -1.671875 C 3.59375 -1.191406 3.648438 -0.828125 3.765625 -0.578125 C 3.890625 -0.335938 4.023438 -0.175781 4.171875 -0.09375 C 4.316406 -0.0078125 4.390625 0.0195312 4.390625 0 Z M 1.515625 0 "/></g></g></g><g fill="#ffffff" fill-opacity="1"><g transform="translate(166.700402, 259.323763)"><g><path d="M 4.8125 0.21875 C 4.1875 0.21875 3.582031 0.128906 3 -0.046875 C 2.425781 -0.222656 1.910156 -0.46875 1.453125 -0.78125 L 1.453125 -2.953125 C 1.765625 -2.148438 2.242188 -1.539062 2.890625 -1.125 C 3.535156 -0.707031 4.203125 -0.5 4.890625 -0.5 C 5.585938 -0.5 6.171875 -0.726562 6.640625 -1.1875 C 7.109375 -1.65625 7.34375 -2.234375 7.34375 -2.921875 C 7.34375 -3.367188 7.25 -3.753906 7.0625 -4.078125 C 6.875 -4.410156 6.578125 -4.71875 6.171875 -5 C 5.765625 -5.28125 5.191406 -5.59375 4.453125 -5.9375 C 3.398438 -6.414062 2.632812 -6.914062 2.15625 -7.4375 C 1.6875 -7.957031 1.453125 -8.59375 1.453125 -9.34375 C 1.453125 -9.976562 1.601562 -10.546875 1.90625 -11.046875 C 2.21875 -11.546875 2.632812 -11.925781 3.15625 -12.1875 C 3.675781 -12.457031 4.25 -12.59375 4.875 -12.59375 C 5.414062 -12.59375 5.941406 -12.519531 6.453125 -12.375 C 6.972656 -12.226562 7.457031 -12.015625 7.90625 -11.734375 L 7.90625 -9.796875 C 7.613281 -10.453125 7.175781 -10.960938 6.59375 -11.328125 C 6.007812 -11.691406 5.421875 -11.875 4.828125 -11.875 C 4.140625 -11.875 3.582031 -11.648438 3.15625 -11.203125 C 2.738281 -10.765625 2.53125 -10.238281 2.53125 -9.625 C 2.53125 -9.1875 2.65625 -8.804688 2.90625 -8.484375 C 3.164062 -8.171875 3.476562 -7.90625 3.84375 -7.6875 C 4.207031 -7.46875 4.71875 -7.203125 5.375 -6.890625 C 6.050781 -6.566406 6.601562 -6.265625 7.03125 -5.984375 C 7.46875 -5.710938 7.828125 -5.351562 8.109375 -4.90625 C 8.398438 -4.46875 8.546875 -3.929688 8.546875 -3.296875 C 8.546875 -2.578125 8.375 -1.953125 8.03125 -1.421875 C 7.695312 -0.890625 7.242188 -0.484375 6.671875 -0.203125 C 6.097656 0.078125 5.476562 0.21875 4.8125 0.21875 Z M 4.8125 0.21875 "/></g></g></g><g fill="#ffffff" fill-opacity="1"><g transform="translate(180.326498, 259.323763)"><g/></g></g><g fill="#ffffff" fill-opacity="1"><g transform="translate(189.056606, 259.323763)"><g><path d="M 11.953125 0 C 12.097656 -0.0195312 12.253906 -0.144531 12.421875 -0.375 C 12.585938 -0.613281 12.671875 -1.050781 12.671875 -1.6875 L 12.671875 -10.6875 L 7.953125 0.203125 L 3.171875 -10.671875 L 3.171875 -1.78125 C 3.171875 -1.132812 3.273438 -0.679688 3.484375 -0.421875 C 3.691406 -0.160156 3.878906 -0.0195312 4.046875 0 L 1.390625 0 C 1.566406 -0.0195312 1.757812 -0.15625 1.96875 -0.40625 C 2.1875 -0.65625 2.296875 -1.113281 2.296875 -1.78125 L 2.296875 -10.796875 C 2.296875 -11.367188 2.191406 -11.765625 1.984375 -11.984375 C 1.785156 -12.203125 1.585938 -12.335938 1.390625 -12.390625 L 3.8125 -12.390625 L 8.21875 -2.328125 L 12.5625 -12.390625 L 14.734375 -12.390625 C 14.585938 -12.359375 14.421875 -12.226562 14.234375 -12 C 14.054688 -11.769531 13.96875 -11.351562 13.96875 -10.75 L 13.96875 -1.625 C 13.96875 -1.019531 14.054688 -0.601562 14.234375 -0.375 C 14.421875 -0.144531 14.585938 -0.0195312 14.734375 0 Z M 11.953125 0 "/></g></g></g><g fill="#ffffff" fill-opacity="1"><g transform="translate(209.162678, 259.323763)"><g><path d="M 1.15625 -6.046875 C 1.15625 -7.316406 1.425781 -8.445312 1.96875 -9.4375 C 2.519531 -10.4375 3.289062 -11.210938 4.28125 -11.765625 C 5.269531 -12.316406 6.410156 -12.59375 7.703125 -12.59375 C 8.785156 -12.59375 9.796875 -12.351562 10.734375 -11.875 C 11.679688 -11.40625 12.4375 -10.695312 13 -9.75 C 13.570312 -8.800781 13.859375 -7.664062 13.859375 -6.34375 C 13.859375 -5.0625 13.582031 -3.921875 13.03125 -2.921875 C 12.488281 -1.929688 11.722656 -1.160156 10.734375 -0.609375 C 9.742188 -0.0546875 8.601562 0.21875 7.3125 0.21875 C 6.226562 0.21875 5.210938 -0.015625 4.265625 -0.484375 C 3.328125 -0.960938 2.570312 -1.675781 2 -2.625 C 1.4375 -3.570312 1.15625 -4.710938 1.15625 -6.046875 Z M 12.421875 -6.0625 C 12.421875 -7.15625 12.191406 -8.140625 11.734375 -9.015625 C 11.285156 -9.898438 10.671875 -10.59375 9.890625 -11.09375 C 9.109375 -11.59375 8.222656 -11.84375 7.234375 -11.84375 C 6.335938 -11.84375 5.535156 -11.613281 4.828125 -11.15625 C 4.128906 -10.695312 3.582031 -10.050781 3.1875 -9.21875 C 2.789062 -8.382812 2.59375 -7.414062 2.59375 -6.3125 C 2.59375 -5.226562 2.816406 -4.242188 3.265625 -3.359375 C 3.710938 -2.472656 4.328125 -1.78125 5.109375 -1.28125 C 5.898438 -0.789062 6.789062 -0.546875 7.78125 -0.546875 C 8.675781 -0.546875 9.472656 -0.769531 10.171875 -1.21875 C 10.878906 -1.675781 11.429688 -2.320312 11.828125 -3.15625 C 12.222656 -3.988281 12.421875 -4.957031 12.421875 -6.0625 Z M 12.421875 -6.0625 "/></g></g></g><g fill="#ffffff" fill-opacity="1"><g transform="translate(228.00875, 259.323763)"><g><path d="M 1.15625 -6.046875 C 1.15625 -7.316406 1.425781 -8.445312 1.96875 -9.4375 C 2.519531 -10.4375 3.289062 -11.210938 4.28125 -11.765625 C 5.269531 -12.316406 6.410156 -12.59375 7.703125 -12.59375 C 8.785156 -12.59375 9.796875 -12.351562 10.734375 -11.875 C 11.679688 -11.40625 12.4375 -10.695312 13 -9.75 C 13.570312 -8.800781 13.859375 -7.664062 13.859375 -6.34375 C 13.859375 -5.0625 13.582031 -3.921875 13.03125 -2.921875 C 12.488281 -1.929688 11.722656 -1.160156 10.734375 -0.609375 C 9.742188 -0.0546875 8.601562 0.21875 7.3125 0.21875 C 6.226562 0.21875 5.210938 -0.015625 4.265625 -0.484375 C 3.328125 -0.960938 2.570312 -1.675781 2 -2.625 C 1.4375 -3.570312 1.15625 -4.710938 1.15625 -6.046875 Z M 12.421875 -6.0625 C 12.421875 -7.15625 12.191406 -8.140625 11.734375 -9.015625 C 11.285156 -9.898438 10.671875 -10.59375 9.890625 -11.09375 C 9.109375 -11.59375 8.222656 -11.84375 7.234375 -11.84375 C 6.335938 -11.84375 5.535156 -11.613281 4.828125 -11.15625 C 4.128906 -10.695312 3.582031 -10.050781 3.1875 -9.21875 C 2.789062 -8.382812 2.59375 -7.414062 2.59375 -6.3125 C 2.59375 -5.226562 2.816406 -4.242188 3.265625 -3.359375 C 3.710938 -2.472656 4.328125 -1.78125 5.109375 -1.28125 C 5.898438 -0.789062 6.789062 -0.546875 7.78125 -0.546875 C 8.675781 -0.546875 9.472656 -0.769531 10.171875 -1.21875 C 10.878906 -1.675781 11.429688 -2.320312 11.828125 -3.15625 C 12.222656 -3.988281 12.421875 -4.957031 12.421875 -6.0625 Z M 12.421875 -6.0625 "/></g></g></g><g fill="#ffffff" fill-opacity="1"><g transform="translate(246.854822, 259.323763)"><g><path d="M 4.8125 0.21875 C 4.1875 0.21875 3.582031 0.128906 3 -0.046875 C 2.425781 -0.222656 1.910156 -0.46875 1.453125 -0.78125 L 1.453125 -2.953125 C 1.765625 -2.148438 2.242188 -1.539062 2.890625 -1.125 C 3.535156 -0.707031 4.203125 -0.5 4.890625 -0.5 C 5.585938 -0.5 6.171875 -0.726562 6.640625 -1.1875 C 7.109375 -1.65625 7.34375 -2.234375 7.34375 -2.921875 C 7.34375 -3.367188 7.25 -3.753906 7.0625 -4.078125 C 6.875 -4.410156 6.578125 -4.71875 6.171875 -5 C 5.765625 -5.28125 5.191406 -5.59375 4.453125 -5.9375 C 3.398438 -6.414062 2.632812 -6.914062 2.15625 -7.4375 C 1.6875 -7.957031 1.453125 -8.59375 1.453125 -9.34375 C 1.453125 -9.976562 1.601562 -10.546875 1.90625 -11.046875 C 2.21875 -11.546875 2.632812 -11.925781 3.15625 -12.1875 C 3.675781 -12.457031 4.25 -12.59375 4.875 -12.59375 C 5.414062 -12.59375 5.941406 -12.519531 6.453125 -12.375 C 6.972656 -12.226562 7.457031 -12.015625 7.90625 -11.734375 L 7.90625 -9.796875 C 7.613281 -10.453125 7.175781 -10.960938 6.59375 -11.328125 C 6.007812 -11.691406 5.421875 -11.875 4.828125 -11.875 C 4.140625 -11.875 3.582031 -11.648438 3.15625 -11.203125 C 2.738281 -10.765625 2.53125 -10.238281 2.53125 -9.625 C 2.53125 -9.1875 2.65625 -8.804688 2.90625 -8.484375 C 3.164062 -8.171875 3.476562 -7.90625 3.84375 -7.6875 C 4.207031 -7.46875 4.71875 -7.203125 5.375 -6.890625 C 6.050781 -6.566406 6.601562 -6.265625 7.03125 -5.984375 C 7.46875 -5.710938 7.828125 -5.351562 8.109375 -4.90625 C 8.398438 -4.46875 8.546875 -3.929688 8.546875 -3.296875 C 8.546875 -2.578125 8.375 -1.953125 8.03125 -1.421875 C 7.695312 -0.890625 7.242188 -0.484375 6.671875 -0.203125 C 6.097656 0.078125 5.476562 0.21875 4.8125 0.21875 Z M 4.8125 0.21875 "/></g></g></g><g fill="#ffffff" fill-opacity="1"><g transform="translate(260.480912, 259.323763)"><g><path d="M 3.796875 -4.8125 L 2.640625 -1.9375 C 2.460938 -1.5 2.375 -1.132812 2.375 -0.84375 C 2.375 -0.445312 2.554688 -0.164062 2.921875 0 L 0.34375 0 C 0.457031 0 0.628906 -0.117188 0.859375 -0.359375 C 1.085938 -0.597656 1.351562 -1.070312 1.65625 -1.78125 L 6.359375 -12.953125 L 11.015625 -1.734375 C 11.273438 -1.078125 11.53125 -0.628906 11.78125 -0.390625 C 12.03125 -0.148438 12.222656 -0.0195312 12.359375 0 L 9.375 0 C 9.675781 -0.144531 9.828125 -0.367188 9.828125 -0.671875 C 9.828125 -0.921875 9.734375 -1.28125 9.546875 -1.75 L 8.28125 -4.8125 Z M 7.984375 -5.546875 L 6.03125 -10.34375 L 4.109375 -5.546875 Z M 7.984375 -5.546875 "/></g></g></g><g fill="#ffffff" fill-opacity="1"><g transform="translate(99.255739, 284.584844)"><g><path d="M 11.734375 -8.234375 C 11.847656 -8.566406 11.90625 -8.828125 11.90625 -9.015625 C 11.90625 -9.398438 11.734375 -9.601562 11.390625 -9.625 L 13.5625 -9.625 C 13.425781 -9.601562 13.25 -9.5 13.03125 -9.3125 C 12.8125 -9.125 12.609375 -8.757812 12.421875 -8.21875 L 9.390625 0.34375 L 6.6875 -7.421875 L 3.90625 0.34375 L 1.140625 -8.265625 C 0.898438 -9.046875 0.546875 -9.5 0.078125 -9.625 L 2.40625 -9.625 C 2.144531 -9.582031 2.015625 -9.429688 2.015625 -9.171875 C 2.015625 -9.035156 2.070312 -8.800781 2.1875 -8.46875 L 2.34375 -7.984375 L 4.109375 -2.140625 L 6.9375 -9.890625 L 9.640625 -2.203125 Z M 11.734375 -8.234375 "/></g></g></g><g fill="#ffffff" fill-opacity="1"><g transform="translate(115.894382, 284.584844)"><g><path d="M 1.1875 0 C 1.1875 0.03125 1.242188 0.0078125 1.359375 -0.0625 C 1.472656 -0.132812 1.570312 -0.273438 1.65625 -0.484375 C 1.75 -0.691406 1.796875 -1 1.796875 -1.40625 L 1.796875 -8.28125 C 1.796875 -8.65625 1.75 -8.941406 1.65625 -9.140625 C 1.570312 -9.347656 1.472656 -9.488281 1.359375 -9.5625 C 1.242188 -9.632812 1.1875 -9.65625 1.1875 -9.625 L 6.265625 -9.625 L 6.265625 -8.234375 C 6.085938 -8.796875 5.582031 -9.078125 4.75 -9.078125 L 2.796875 -9.078125 L 2.796875 -5.09375 L 5.203125 -5.09375 C 5.390625 -5.09375 5.546875 -5.125 5.671875 -5.1875 C 5.804688 -5.25 5.90625 -5.3125 5.96875 -5.375 C 6.039062 -5.4375 6.082031 -5.476562 6.09375 -5.5 L 6.09375 -4.140625 C 6.082031 -4.160156 6.039062 -4.203125 5.96875 -4.265625 C 5.90625 -4.335938 5.8125 -4.398438 5.6875 -4.453125 C 5.5625 -4.503906 5.40625 -4.53125 5.21875 -4.53125 L 2.796875 -4.53125 L 2.796875 -0.5625 L 4.984375 -0.5625 C 5.398438 -0.5625 5.757812 -0.644531 6.0625 -0.8125 C 6.375 -0.988281 6.59375 -1.210938 6.71875 -1.484375 L 6.46875 0 Z M 1.1875 0 "/></g></g></g><g fill="#ffffff" fill-opacity="1"><g transform="translate(126.488406, 284.584844)"><g><path d="M 5.625 -0.234375 C 5.382812 -0.148438 5.109375 -0.0859375 4.796875 -0.046875 C 4.484375 -0.015625 4.050781 0 3.5 0 L 1.1875 0 C 1.3125 -0.03125 1.441406 -0.132812 1.578125 -0.3125 C 1.722656 -0.5 1.796875 -0.851562 1.796875 -1.375 L 1.796875 -8.296875 C 1.796875 -8.785156 1.726562 -9.117188 1.59375 -9.296875 C 1.46875 -9.484375 1.335938 -9.59375 1.203125 -9.625 L 3.5 -9.625 C 4.09375 -9.625 4.546875 -9.597656 4.859375 -9.546875 C 5.171875 -9.503906 5.445312 -9.429688 5.6875 -9.328125 C 6.09375 -9.128906 6.40625 -8.851562 6.625 -8.5 C 6.851562 -8.144531 6.96875 -7.757812 6.96875 -7.34375 C 6.96875 -6.71875 6.78125 -6.175781 6.40625 -5.71875 C 6.03125 -5.269531 5.53125 -4.984375 4.90625 -4.859375 C 5.332031 -4.804688 5.734375 -4.679688 6.109375 -4.484375 C 6.484375 -4.296875 6.789062 -4.03125 7.03125 -3.6875 C 7.269531 -3.351562 7.390625 -2.972656 7.390625 -2.546875 C 7.390625 -1.953125 7.226562 -1.460938 6.90625 -1.078125 C 6.59375 -0.703125 6.164062 -0.421875 5.625 -0.234375 Z M 5.234375 -8.65625 C 5.046875 -8.789062 4.84375 -8.894531 4.625 -8.96875 C 4.414062 -9.039062 4.128906 -9.078125 3.765625 -9.078125 L 2.796875 -9.078125 L 2.796875 -5.09375 L 3.9375 -5.09375 C 4.269531 -5.09375 4.546875 -5.144531 4.765625 -5.25 C 4.992188 -5.351562 5.191406 -5.488281 5.359375 -5.65625 C 5.535156 -5.832031 5.675781 -6.046875 5.78125 -6.296875 C 5.882812 -6.546875 5.9375 -6.800781 5.9375 -7.0625 C 5.9375 -7.382812 5.878906 -7.6875 5.765625 -7.96875 C 5.648438 -8.25 5.472656 -8.476562 5.234375 -8.65625 Z M 5.53125 -4.125 C 5.351562 -4.269531 5.132812 -4.375 4.875 -4.4375 C 4.613281 -4.5 4.257812 -4.53125 3.8125 -4.53125 L 2.796875 -4.53125 L 2.796875 -0.5625 L 4.125 -0.5625 C 4.800781 -0.5625 5.328125 -0.71875 5.703125 -1.03125 C 6.078125 -1.351562 6.265625 -1.859375 6.265625 -2.546875 C 6.265625 -3.191406 6.019531 -3.71875 5.53125 -4.125 Z M 5.53125 -4.125 "/></g></g></g><g fill="#ffffff" fill-opacity="1"><g transform="translate(137.977931, 284.584844)"><g/></g></g><g fill="#ffffff" fill-opacity="1"><g transform="translate(144.766073, 284.584844)"><g><path d="M 7.46875 -0.78125 C 6.582031 -0.257812 5.410156 0 3.953125 0 L 1.1875 0 C 1.1875 0.03125 1.242188 0.00390625 1.359375 -0.078125 C 1.472656 -0.160156 1.570312 -0.304688 1.65625 -0.515625 C 1.75 -0.734375 1.796875 -1.046875 1.796875 -1.453125 L 1.796875 -8.34375 C 1.796875 -8.707031 1.75 -8.984375 1.65625 -9.171875 C 1.570312 -9.367188 1.472656 -9.5 1.359375 -9.5625 C 1.242188 -9.625 1.1875 -9.644531 1.1875 -9.625 L 3.9375 -9.625 C 5.363281 -9.625 6.492188 -9.394531 7.328125 -8.9375 C 8.054688 -8.519531 8.617188 -7.960938 9.015625 -7.265625 C 9.421875 -6.566406 9.625 -5.78125 9.625 -4.90625 C 9.625 -3.945312 9.4375 -3.117188 9.0625 -2.421875 C 8.6875 -1.734375 8.15625 -1.1875 7.46875 -0.78125 Z M 6.921875 -8.296875 C 6.503906 -8.566406 6.0625 -8.765625 5.59375 -8.890625 C 5.132812 -9.015625 4.582031 -9.078125 3.9375 -9.078125 L 2.796875 -9.078125 L 2.796875 -0.5625 L 3.9375 -0.5625 C 4.695312 -0.5625 5.320312 -0.625 5.8125 -0.75 C 6.300781 -0.882812 6.722656 -1.085938 7.078125 -1.359375 C 7.535156 -1.710938 7.890625 -2.175781 8.140625 -2.75 C 8.390625 -3.320312 8.515625 -3.992188 8.515625 -4.765625 C 8.515625 -5.578125 8.367188 -6.285156 8.078125 -6.890625 C 7.796875 -7.503906 7.410156 -7.972656 6.921875 -8.296875 Z M 6.921875 -8.296875 "/></g></g></g><g fill="#ffffff" fill-opacity="1"><g transform="translate(158.382402, 284.584844)"><g><path d="M 1.1875 0 C 1.1875 0.03125 1.242188 0.0078125 1.359375 -0.0625 C 1.472656 -0.132812 1.570312 -0.273438 1.65625 -0.484375 C 1.75 -0.691406 1.796875 -1 1.796875 -1.40625 L 1.796875 -8.28125 C 1.796875 -8.65625 1.75 -8.941406 1.65625 -9.140625 C 1.570312 -9.347656 1.472656 -9.488281 1.359375 -9.5625 C 1.242188 -9.632812 1.1875 -9.65625 1.1875 -9.625 L 6.265625 -9.625 L 6.265625 -8.234375 C 6.085938 -8.796875 5.582031 -9.078125 4.75 -9.078125 L 2.796875 -9.078125 L 2.796875 -5.09375 L 5.203125 -5.09375 C 5.390625 -5.09375 5.546875 -5.125 5.671875 -5.1875 C 5.804688 -5.25 5.90625 -5.3125 5.96875 -5.375 C 6.039062 -5.4375 6.082031 -5.476562 6.09375 -5.5 L 6.09375 -4.140625 C 6.082031 -4.160156 6.039062 -4.203125 5.96875 -4.265625 C 5.90625 -4.335938 5.8125 -4.398438 5.6875 -4.453125 C 5.5625 -4.503906 5.40625 -4.53125 5.21875 -4.53125 L 2.796875 -4.53125 L 2.796875 -0.5625 L 4.984375 -0.5625 C 5.398438 -0.5625 5.757812 -0.644531 6.0625 -0.8125 C 6.375 -0.988281 6.59375 -1.210938 6.71875 -1.484375 L 6.46875 0 Z M 1.1875 0 "/></g></g></g><g fill="#ffffff" fill-opacity="1"><g transform="translate(168.976426, 284.584844)"><g><path d="M 7.46875 -8.890625 C 7.46875 -9.078125 7.414062 -9.238281 7.3125 -9.375 C 7.21875 -9.507812 7.0625 -9.59375 6.84375 -9.625 L 9.203125 -9.625 C 9.078125 -9.613281 8.910156 -9.507812 8.703125 -9.3125 C 8.503906 -9.113281 8.289062 -8.75 8.0625 -8.21875 L 4.515625 0.34375 L 0.921875 -8.265625 C 0.710938 -8.753906 0.507812 -9.09375 0.3125 -9.28125 C 0.113281 -9.476562 -0.0507812 -9.59375 -0.1875 -9.625 L 2.15625 -9.625 C 1.90625 -9.5625 1.78125 -9.398438 1.78125 -9.140625 C 1.78125 -9.003906 1.8125 -8.851562 1.875 -8.6875 C 1.9375 -8.53125 1.972656 -8.4375 1.984375 -8.40625 L 4.703125 -1.765625 L 7.34375 -8.234375 C 7.425781 -8.441406 7.46875 -8.660156 7.46875 -8.890625 Z M 7.46875 -8.890625 "/></g></g></g><g fill="#ffffff" fill-opacity="1"><g transform="translate(180.969662, 284.584844)"><g><path d="M 1.1875 0 C 1.1875 0.03125 1.242188 0.0078125 1.359375 -0.0625 C 1.472656 -0.132812 1.570312 -0.273438 1.65625 -0.484375 C 1.75 -0.691406 1.796875 -1 1.796875 -1.40625 L 1.796875 -8.28125 C 1.796875 -8.65625 1.75 -8.941406 1.65625 -9.140625 C 1.570312 -9.347656 1.472656 -9.488281 1.359375 -9.5625 C 1.242188 -9.632812 1.1875 -9.65625 1.1875 -9.625 L 6.265625 -9.625 L 6.265625 -8.234375 C 6.085938 -8.796875 5.582031 -9.078125 4.75 -9.078125 L 2.796875 -9.078125 L 2.796875 -5.09375 L 5.203125 -5.09375 C 5.390625 -5.09375 5.546875 -5.125 5.671875 -5.1875 C 5.804688 -5.25 5.90625 -5.3125 5.96875 -5.375 C 6.039062 -5.4375 6.082031 -5.476562 6.09375 -5.5 L 6.09375 -4.140625 C 6.082031 -4.160156 6.039062 -4.203125 5.96875 -4.265625 C 5.90625 -4.335938 5.8125 -4.398438 5.6875 -4.453125 C 5.5625 -4.503906 5.40625 -4.53125 5.21875 -4.53125 L 2.796875 -4.53125 L 2.796875 -0.5625 L 4.984375 -0.5625 C 5.398438 -0.5625 5.757812 -0.644531 6.0625 -0.8125 C 6.375 -0.988281 6.59375 -1.210938 6.71875 -1.484375 L 6.46875 0 Z M 1.1875 0 "/></g></g></g><g fill="#ffffff" fill-opacity="1"><g transform="translate(191.563685, 284.584844)"><g><path d="M 1.796875 -8.328125 C 1.796875 -8.703125 1.75 -8.984375 1.65625 -9.171875 C 1.570312 -9.367188 1.472656 -9.5 1.359375 -9.5625 C 1.242188 -9.625 1.1875 -9.644531 1.1875 -9.625 L 3.421875 -9.625 C 3.421875 -9.644531 3.363281 -9.625 3.25 -9.5625 C 3.132812 -9.5 3.03125 -9.367188 2.9375 -9.171875 C 2.84375 -8.984375 2.796875 -8.703125 2.796875 -8.328125 L 2.796875 -0.5625 L 5.09375 -0.5625 C 5.507812 -0.5625 5.867188 -0.644531 6.171875 -0.8125 C 6.484375 -0.988281 6.703125 -1.210938 6.828125 -1.484375 L 6.578125 0 L 1.1875 0 C 1.1875 0.03125 1.242188 0.0078125 1.359375 -0.0625 C 1.472656 -0.132812 1.570312 -0.273438 1.65625 -0.484375 C 1.75 -0.691406 1.796875 -1 1.796875 -1.40625 Z M 1.796875 -8.328125 "/></g></g></g><g fill="#ffffff" fill-opacity="1"><g transform="translate(201.849875, 284.584844)"><g><path d="M 0.890625 -4.703125 C 0.890625 -5.691406 1.101562 -6.570312 1.53125 -7.34375 C 1.957031 -8.125 2.554688 -8.726562 3.328125 -9.15625 C 4.097656 -9.582031 4.984375 -9.796875 5.984375 -9.796875 C 6.828125 -9.796875 7.613281 -9.609375 8.34375 -9.234375 C 9.082031 -8.867188 9.671875 -8.316406 10.109375 -7.578125 C 10.554688 -6.847656 10.78125 -5.960938 10.78125 -4.921875 C 10.78125 -3.929688 10.566406 -3.050781 10.140625 -2.28125 C 9.710938 -1.507812 9.113281 -0.90625 8.34375 -0.46875 C 7.582031 -0.0390625 6.695312 0.171875 5.6875 0.171875 C 4.84375 0.171875 4.050781 -0.0078125 3.3125 -0.375 C 2.582031 -0.75 1.992188 -1.304688 1.546875 -2.046875 C 1.109375 -2.785156 0.890625 -3.671875 0.890625 -4.703125 Z M 9.65625 -4.71875 C 9.65625 -5.5625 9.476562 -6.328125 9.125 -7.015625 C 8.78125 -7.703125 8.300781 -8.238281 7.6875 -8.625 C 7.082031 -9.019531 6.394531 -9.21875 5.625 -9.21875 C 4.925781 -9.21875 4.300781 -9.035156 3.75 -8.671875 C 3.207031 -8.316406 2.78125 -7.816406 2.46875 -7.171875 C 2.164062 -6.523438 2.015625 -5.769531 2.015625 -4.90625 C 2.015625 -4.0625 2.1875 -3.296875 2.53125 -2.609375 C 2.882812 -1.921875 3.367188 -1.382812 3.984375 -1 C 4.597656 -0.613281 5.285156 -0.421875 6.046875 -0.421875 C 6.742188 -0.421875 7.363281 -0.597656 7.90625 -0.953125 C 8.457031 -1.304688 8.882812 -1.804688 9.1875 -2.453125 C 9.5 -3.109375 9.65625 -3.863281 9.65625 -4.71875 Z M 9.65625 -4.71875 "/></g></g></g><g fill="#ffffff" fill-opacity="1"><g transform="translate(216.50163, 284.584844)"><g><path d="M 7.21875 -7.03125 C 7.21875 -6.488281 7.085938 -6.003906 6.828125 -5.578125 C 6.578125 -5.148438 6.210938 -4.816406 5.734375 -4.578125 C 5.265625 -4.335938 4.707031 -4.21875 4.0625 -4.21875 C 3.664062 -4.21875 3.242188 -4.257812 2.796875 -4.34375 L 2.796875 -1.28125 C 2.796875 -0.914062 2.84375 -0.640625 2.9375 -0.453125 C 3.03125 -0.265625 3.132812 -0.132812 3.25 -0.0625 C 3.363281 0 3.421875 0.0195312 3.421875 0 L 1.1875 0 C 1.1875 0.0195312 1.242188 0 1.359375 -0.0625 C 1.472656 -0.132812 1.570312 -0.265625 1.65625 -0.453125 C 1.75 -0.640625 1.796875 -0.914062 1.796875 -1.28125 L 1.796875 -8.296875 C 1.796875 -8.671875 1.75 -8.957031 1.65625 -9.15625 C 1.570312 -9.351562 1.472656 -9.484375 1.359375 -9.546875 C 1.242188 -9.617188 1.1875 -9.644531 1.1875 -9.625 L 3.9375 -9.625 C 4.40625 -9.625 4.796875 -9.59375 5.109375 -9.53125 C 5.421875 -9.476562 5.691406 -9.390625 5.921875 -9.265625 C 6.335938 -9.054688 6.65625 -8.75 6.875 -8.34375 C 7.101562 -7.9375 7.21875 -7.5 7.21875 -7.03125 Z M 6.140625 -6.84375 C 6.140625 -7.507812 5.929688 -8.046875 5.515625 -8.453125 C 5.109375 -8.867188 4.566406 -9.078125 3.890625 -9.078125 L 2.796875 -9.078125 L 2.796875 -4.890625 C 3.203125 -4.816406 3.625 -4.78125 4.0625 -4.78125 C 4.71875 -4.78125 5.226562 -4.96875 5.59375 -5.34375 C 5.957031 -5.71875 6.140625 -6.21875 6.140625 -6.84375 Z M 6.140625 -6.84375 "/></g></g></g><g fill="#ffffff" fill-opacity="1"><g transform="translate(227.375496, 284.584844)"><g><path d="M 9.296875 0 C 9.410156 -0.0195312 9.53125 -0.117188 9.65625 -0.296875 C 9.789062 -0.484375 9.859375 -0.820312 9.859375 -1.3125 L 9.859375 -8.3125 L 6.1875 0.15625 L 2.46875 -8.296875 L 2.46875 -1.390625 C 2.46875 -0.878906 2.546875 -0.523438 2.703125 -0.328125 C 2.867188 -0.128906 3.019531 -0.0195312 3.15625 0 L 1.078125 0 C 1.210938 -0.0195312 1.363281 -0.125 1.53125 -0.3125 C 1.707031 -0.507812 1.796875 -0.867188 1.796875 -1.390625 L 1.796875 -8.40625 C 1.796875 -8.851562 1.710938 -9.160156 1.546875 -9.328125 C 1.390625 -9.492188 1.234375 -9.59375 1.078125 -9.625 L 2.96875 -9.625 L 6.390625 -1.8125 L 9.765625 -9.625 L 11.46875 -9.625 C 11.34375 -9.613281 11.207031 -9.519531 11.0625 -9.34375 C 10.925781 -9.164062 10.859375 -8.835938 10.859375 -8.359375 L 10.859375 -1.265625 C 10.859375 -0.796875 10.925781 -0.472656 11.0625 -0.296875 C 11.207031 -0.117188 11.34375 -0.0195312 11.46875 0 Z M 9.296875 0 "/></g></g></g><g fill="#ffffff" fill-opacity="1"><g transform="translate(243.006706, 284.584844)"><g><path d="M 1.1875 0 C 1.1875 0.03125 1.242188 0.0078125 1.359375 -0.0625 C 1.472656 -0.132812 1.570312 -0.273438 1.65625 -0.484375 C 1.75 -0.691406 1.796875 -1 1.796875 -1.40625 L 1.796875 -8.28125 C 1.796875 -8.65625 1.75 -8.941406 1.65625 -9.140625 C 1.570312 -9.347656 1.472656 -9.488281 1.359375 -9.5625 C 1.242188 -9.632812 1.1875 -9.65625 1.1875 -9.625 L 6.265625 -9.625 L 6.265625 -8.234375 C 6.085938 -8.796875 5.582031 -9.078125 4.75 -9.078125 L 2.796875 -9.078125 L 2.796875 -5.09375 L 5.203125 -5.09375 C 5.390625 -5.09375 5.546875 -5.125 5.671875 -5.1875 C 5.804688 -5.25 5.90625 -5.3125 5.96875 -5.375 C 6.039062 -5.4375 6.082031 -5.476562 6.09375 -5.5 L 6.09375 -4.140625 C 6.082031 -4.160156 6.039062 -4.203125 5.96875 -4.265625 C 5.90625 -4.335938 5.8125 -4.398438 5.6875 -4.453125 C 5.5625 -4.503906 5.40625 -4.53125 5.21875 -4.53125 L 2.796875 -4.53125 L 2.796875 -0.5625 L 4.984375 -0.5625 C 5.398438 -0.5625 5.757812 -0.644531 6.0625 -0.8125 C 6.375 -0.988281 6.59375 -1.210938 6.71875 -1.484375 L 6.46875 0 Z M 1.1875 0 "/></g></g></g><g fill="#ffffff" fill-opacity="1"><g transform="translate(253.60073, 284.584844)"><g><path d="M 10.203125 -9.625 C 10.078125 -9.601562 9.945312 -9.5 9.8125 -9.3125 C 9.6875 -9.132812 9.625 -8.816406 9.625 -8.359375 L 9.625 0.390625 L 2.46875 -7.96875 L 2.46875 -1.265625 C 2.46875 -0.816406 2.546875 -0.5 2.703125 -0.3125 C 2.859375 -0.132812 3.007812 -0.03125 3.15625 0 L 1.1875 0 C 1.320312 -0.03125 1.457031 -0.132812 1.59375 -0.3125 C 1.726562 -0.5 1.796875 -0.820312 1.796875 -1.28125 L 1.796875 -8.28125 C 1.796875 -8.59375 1.6875 -8.878906 1.46875 -9.140625 C 1.25 -9.398438 0.976562 -9.5625 0.65625 -9.625 L 2.390625 -9.625 L 8.953125 -1.96875 L 8.953125 -8.359375 C 8.953125 -9.078125 8.710938 -9.5 8.234375 -9.625 Z M 10.203125 -9.625 "/></g></g></g><g fill="#ffffff" fill-opacity="1"><g transform="translate(268.000624, 284.584844)"><g><path d="M 2.078125 -9.078125 C 1.660156 -9.078125 1.316406 -8.992188 1.046875 -8.828125 C 0.773438 -8.671875 0.582031 -8.472656 0.46875 -8.234375 L 0.65625 -9.625 L 7.296875 -9.625 L 7.484375 -8.234375 C 7.367188 -8.472656 7.175781 -8.671875 6.90625 -8.828125 C 6.632812 -8.992188 6.289062 -9.078125 5.875 -9.078125 L 4.484375 -9.078125 L 4.484375 -1.296875 C 4.484375 -0.921875 4.53125 -0.632812 4.625 -0.4375 C 4.71875 -0.25 4.816406 -0.117188 4.921875 -0.046875 C 5.035156 0.015625 5.09375 0.03125 5.09375 0 L 2.875 0 C 2.875 0.03125 2.925781 0.015625 3.03125 -0.046875 C 3.144531 -0.117188 3.242188 -0.25 3.328125 -0.4375 C 3.421875 -0.632812 3.46875 -0.921875 3.46875 -1.296875 L 3.46875 -9.078125 Z M 2.078125 -9.078125 "/></g></g></g></svg>